<?xml version="1.0" encoding="UTF-8"?>
<svg id="Camada_2" data-name="Camada 2" xmlns="http://www.w3.org/2000/svg" viewBox="0 0 32 32">
  <defs>
    <style>
      .cls-1 {
        fill: #b83b5e;
      }

      .cls-2 {
        fill: #262335;
      }
    </style>
  </defs>
  <g id="Camada_1-2" data-name="Camada 1">
    <g>
      <rect class="cls-1" x="0" y="0" width="32" height="32" rx="16" ry="16"/>
      <g>
        <path class="cls-2" d="M8.93,11.86l2.13,13.87h9.54l2.13-13.87h-13.8ZM15.5,25.23h-1.52l-1.73-11.5-.49.07,1.71,11.43h-1.98l-1.98-12.87h.89l1.58,11.5.49-.07-1.57-11.43h2.02l1.4,11.22.5-.06-1.4-11.16h2.08v12.87ZM20.17,25.23h-2.14l1.71-11.43-.49-.07-1.73,11.5h-1.52v-12.87h2.08l-1.4,11.16.5.06,1.4-11.22h2.02l-1.58,11.43.5.07,1.58-11.5h1.05l-1.98,12.87Z"/>
        <path class="cls-2" d="M24.57,10.83l-2.01-.28c.08-.08.15-.18.17-.31.04-.27-.15-.53-.42-.57l-.45-.06s.03-.08.04-.13c.04-.27-.15-.53-.42-.57l-2.5-.36-.59-1.34c-.13-.3-.4-.5-.72-.55l-2.81-.4c-.32-.04-.64.07-.84.32l-.94,1.12-2.5-.36c-.28-.04-.53.16-.57.42,0,.05,0,.09,0,.13l-.29-.04c-.28-.04-.53.16-.57.42-.02.13.02.24.07.34l-1.64-.23c-.28-.04-.53.16-.57.42s.15.53.42.57l17,2.41c.27.04.53-.15.57-.42s-.16-.53-.42-.57ZM14.39,6.92c.1-.11.24-.17.38-.15l2.81.4c.15.02.27.12.33.25l.28.65-4.26-.6.45-.54Z"/>
        <polygon class="cls-1" points="10.83 11.85 10.83 11.86 10.76 11.86 10.83 11.85"/>
        <polygon class="cls-1" points="20.74 11.86 20.67 11.86 20.67 11.85 20.74 11.86"/>
      </g>
    </g>
  </g>
</svg>